<svg xmlns="http://www.w3.org/2000/svg" viewBox="0 0 902.18 1333.16"><defs><style>.cls-1{fill:#ff6b1a;}</style></defs><g id="Capa_2" data-name="Capa 2"><g id="Capa_1-2" data-name="Capa 1"><path class="cls-1" d="M0,830.36V160.64L305.13,0,603.92,167.34l-11.46,20.45L316.69,33.35V663.64ZM23.46,174.79V791.51l269.77-142V32.77Z"/><rect class="cls-1" x="581.46" y="168.18" width="23.46" height="635.75"/><polyline class="cls-1" points="301.56 10.97 301.56 655.19 16.84 809.8 16.84 165.59 301.56 10.97"/><path class="cls-1" d="M298.26,1333.16V663.44L603.39,502.8,902.18,670.14l-11.46,20.45L615,536.15v630.29Zm23.46-655.57V1294.3l269.77-142V535.57Z"/><rect class="cls-1" x="878.72" y="670.98" width="23.46" height="635.75"/><polyline class="cls-1" points="599.82 513.77 599.82 1157.99 315.1 1312.6 315.1 668.38 599.82 513.77"/></g></g></svg>